# xmcd
#
# Track frame offsets: 
#        150
#        23330
#        43290
#        64402
#        86835
#        109122
#        132295
#        155242
#        176717
#        196835
#        215950
#        236795
#
# Disc length: 3419 seconds
#
# Revision: 0
# Processed by: cddbd v1.5.1PL2 Copyright (c) Steve Scherf et al.
# Submitted via: ExactAudioCopy v0.95a5
#
DISCID=b50d590c
DTITLE=Barrington Scott Henderson - BEST KEPT SECRET...
DYEAR=2003
DGENRE=R&B
TTITLE0=Right in Da Pocket
TTITLE1=Ain't No Doubt About It
TTITLE2=You Said Goodbye
TTITLE3=Sorry
TTITLE4=Precious Girl
TTITLE5=Baby It's About You
TTITLE6=Makin' Love
TTITLE7=Step Back
TTITLE8=Touch Me
TTITLE9=You're the Lifeline
TTITLE10=West Coast Girls
TTITLE11=I Wanna Thank You
EXTD=
EXTT0=
EXTT1=
EXTT2=
EXTT3=
EXTT4=
EXTT5=
EXTT6=
EXTT7=
EXTT8=
EXTT9=
EXTT10=
EXTT11=
PLAYORDER=
